<svg xmlns="http://www.w3.org/2000/svg" width="21" height="24" viewBox="0 0 21 24"><path fill="#fff" d="M16.98 12.6c-.02-2.87 2.44-4.26 2.55-4.33a5.53 5.53 0 0 0-4.31-2.25c-1.82-.19-3.57 1.05-4.5 1.05-.94 0-2.36-1.03-3.9-1a5.77 5.77 0 0 0-4.83 2.84c-2.09 3.5-.53 8.63 1.47 11.46 1 1.38 2.17 2.93 3.7 2.87 1.5-.06 2.06-.92 3.87-.92 1.79 0 2.32.92 3.88.89 1.61-.03 2.62-1.39 3.59-2.79a11.59 11.59 0 0 0 1.64-3.23 5.02 5.02 0 0 1-3.16-4.59M14.52 3.64A4.96 4.96 0 0 0 15.73 0a5.44 5.44 0 0 0-3.47 1.73 4.76 4.76 0 0 0-1.23 3.51 4.49 4.49 0 0 0 3.49-1.6"/></svg>