<svg xmlns="http://www.w3.org/2000/svg" width="223" height="18" viewBox="0 0 223 18"><path fill="#fff" d="M1.8 17.14h4.95c1.91 0 3.54-.34 4.91-1.01a7.04 7.04 0 0 0 3.11-2.92 9.09 9.09 0 0 0 1.07-4.55c0-1.76-.36-3.27-1.08-4.53a7.18 7.18 0 0 0-3.13-2.91c-1.36-.67-2.99-1-4.88-1H1.8C1.22.22.78.37.47.67.16.98 0 1.41 0 1.97v13.41c0 .56.16 1 .47 1.3.31.3.75.46 1.33.46zm2.04-3.03V3.24h2.64c3.7 0 5.55 1.81 5.55 5.42 0 3.64-1.85 5.45-5.55 5.45zm22.95 3.24c1.72 0 3.22-.35 4.49-1.07a7.28 7.28 0 0 0 2.95-3.02 9.7 9.7 0 0 0 1.03-4.6c0-1.76-.34-3.29-1.03-4.59a7.14 7.14 0 0 0-2.95-3.01A9.06 9.06 0 0 0 26.79 0c-1.73 0-3.23.35-4.5 1.06a7.2 7.2 0 0 0-2.95 3.01 9.65 9.65 0 0 0-1.03 4.59c0 1.76.34 3.3 1.03 4.6a7.34 7.34 0 0 0 2.95 3.02 8.97 8.97 0 0 0 4.5 1.07zm0-2.9c-1.45 0-2.58-.5-3.4-1.49-.83-.99-1.24-2.42-1.24-4.3 0-1.87.41-3.3 1.22-4.28a4.21 4.21 0 0 1 3.42-1.48c1.46 0 2.6.5 3.42 1.48.82.98 1.23 2.41 1.23 4.28 0 1.88-.41 3.31-1.24 4.3a4.22 4.22 0 0 1-3.41 1.49zM59.24 1.22l-3.92 10.83L51.55 1.3c-.15-.4-.38-.71-.69-.92a1.89 1.89 0 0 0-2.06 0c-.32.21-.55.51-.7.89l-3.94 10.59-3.8-10.64a1.69 1.69 0 0 0-.7-.87c-.32-.2-.68-.3-1.07-.3-.49 0-.92.15-1.28.44-.36.3-.54.69-.54 1.19 0 .24.05.5.14.77l5.13 13.65c.15.39.41.69.78.9.37.22.76.33 1.19.33.44 0 .85-.11 1.21-.33.36-.21.61-.51.76-.9L49.75 6l3.67 10.1c.15.39.41.69.77.9.36.22.76.33 1.21.33.44 0 .85-.11 1.22-.33.37-.21.62-.51.77-.9l5.13-13.65c.1-.29.15-.55.15-.79 0-.5-.17-.89-.51-1.18a1.8 1.8 0 0 0-1.22-.43 1.76 1.76 0 0 0-1.7 1.17zM78.44.1c-.53 0-.96.17-1.29.51a1.9 1.9 0 0 0-.49 1.33v9L68.41.72C68.08.3 67.61.1 67 .1c-.54 0-.98.17-1.32.51-.33.35-.5.79-.5 1.33v13.47c0 .56.16 1.01.49 1.35.33.35.77.52 1.31.52s.97-.17 1.29-.52c.32-.34.48-.79.48-1.35V6.36l8.26 10.3c.36.41.83.62 1.43.62.54 0 .98-.17 1.31-.52.34-.34.51-.79.51-1.35V1.94c0-.54-.17-.98-.51-1.33A1.75 1.75 0 0 0 78.44.1zm7.07 17.04h8.35c1.2 0 1.8-.51 1.8-1.52 0-1.02-.6-1.53-1.8-1.53h-6.31V1.94c0-.56-.17-1-.51-1.34-.35-.34-.82-.5-1.41-.5a1.9 1.9 0 0 0-1.4.5c-.35.34-.52.78-.52 1.34v13.44c0 .56.16 1 .47 1.3.31.3.75.46 1.33.46zm19.07.21c1.73 0 3.23-.35 4.5-1.07a7.31 7.31 0 0 0 2.94-3.02 9.7 9.7 0 0 0 1.04-4.6c0-1.76-.35-3.29-1.04-4.59a7.17 7.17 0 0 0-2.94-3.01 9.08 9.08 0 0 0-4.5-1.06c-1.72 0-3.22.35-4.5 1.06a7.17 7.17 0 0 0-2.94 3.01 9.66 9.66 0 0 0-1.04 4.59c0 1.76.35 3.3 1.04 4.6a7.31 7.31 0 0 0 2.94 3.02 9.02 9.02 0 0 0 4.5 1.07zm0-2.9c-1.44 0-2.58-.5-3.4-1.49-.82-.99-1.23-2.42-1.23-4.3 0-1.87.41-3.3 1.22-4.28a4.19 4.19 0 0 1 3.41-1.48c1.46 0 2.61.5 3.43 1.48.82.98 1.23 2.41 1.23 4.28 0 1.88-.42 3.31-1.25 4.3a4.2 4.2 0 0 1-3.41 1.49zm27.11.41l-6.66-13.61a2.1 2.1 0 0 0-.83-.87 2.43 2.43 0 0 0-2.34-.01c-.37.2-.64.49-.82.88l-6.65 13.61c-.13.28-.2.54-.2.76 0 .45.19.83.57 1.14.38.32.8.47 1.28.47.33 0 .63-.08.9-.25.27-.17.48-.42.63-.76l1.3-2.83h8.36l1.3 2.83c.15.34.37.59.64.76a1.87 1.87 0 0 0 2.16-.22c.37-.31.56-.69.56-1.14 0-.22-.07-.48-.2-.76zm-8.63-10.54l2.86 6.24h-5.74zm12.74 12.82h4.96c1.9 0 3.54-.34 4.9-1.01a7.12 7.12 0 0 0 3.12-2.92 9.2 9.2 0 0 0 1.07-4.55c0-1.76-.36-3.27-1.08-4.53a7.23 7.23 0 0 0-3.13-2.91c-1.37-.67-2.99-1-4.88-1h-4.96c-.57 0-1.02.15-1.33.45-.31.31-.47.74-.47 1.3v13.41c0 .56.16 1 .47 1.3.31.3.76.46 1.33.46zm2.05-3.03V3.24h2.64c3.69 0 5.54 1.81 5.54 5.42 0 3.64-1.85 5.45-5.54 5.45zM172.94.1c-.53 0-.95.17-1.28.51-.33.35-.49.79-.49 1.33v9L162.91.72c-.33-.42-.8-.62-1.4-.62-.55 0-.99.17-1.32.51-.34.35-.51.79-.51 1.33v13.47c0 .56.17 1.01.49 1.35.33.35.77.52 1.31.52s.97-.17 1.29-.52c.32-.34.48-.79.48-1.35V6.36l8.26 10.3c.36.41.84.62 1.43.62.54 0 .98-.17 1.32-.52.33-.34.5-.79.5-1.35V1.94c0-.54-.17-.98-.5-1.33a1.79 1.79 0 0 0-1.32-.51zm13.26 17.25c1.72 0 3.22-.35 4.49-1.07a7.28 7.28 0 0 0 2.95-3.02 9.7 9.7 0 0 0 1.03-4.6c0-1.76-.34-3.29-1.03-4.59a7.14 7.14 0 0 0-2.95-3.01A9.06 9.06 0 0 0 186.2 0c-1.73 0-3.23.35-4.5 1.06a7.2 7.2 0 0 0-2.95 3.01 9.65 9.65 0 0 0-1.03 4.59c0 1.76.34 3.3 1.03 4.6a7.34 7.34 0 0 0 2.95 3.02 8.97 8.97 0 0 0 4.5 1.07zm0-2.9c-1.45 0-2.58-.5-3.4-1.49-.83-.99-1.24-2.42-1.24-4.3 0-1.87.41-3.3 1.22-4.28a4.21 4.21 0 0 1 3.42-1.48c1.46 0 2.6.5 3.42 1.48.82.98 1.23 2.41 1.23 4.28 0 1.88-.41 3.31-1.24 4.3a4.22 4.22 0 0 1-3.41 1.49zM219.33.35c.3-.2.64-.3 1.02-.3.48 0 .88.14 1.22.43.34.29.51.68.51 1.18 0 .24-.05.5-.15.79L216.8 16.1c-.15.39-.4.69-.77.9-.37.22-.78.33-1.22.33-.45 0-.85-.11-1.21-.33a1.68 1.68 0 0 1-.76-.9L209.16 6l-3.77 10.1c-.14.39-.4.69-.76.9-.36.22-.76.33-1.21.33-.43 0-.82-.11-1.19-.33a1.72 1.72 0 0 1-.78-.9l-5.13-13.65a2.47 2.47 0 0 1-.14-.77c0-.5.18-.89.54-1.19.36-.29.79-.44 1.28-.44.39 0 .75.1 1.07.3.32.2.56.49.7.87l3.8 10.64 3.94-10.59a1.83 1.83 0 0 1 1.73-1.2c.38 0 .72.11 1.03.31.31.21.54.52.69.92l3.77 10.75 3.92-10.83c.15-.38.37-.67.68-.87z"/></svg>